<svg xmlns="http://www.w3.org/2000/svg"><metadata/><defs><font id="mecharegular" horiz-adv-x="896"><font-face ascent="1638" descent="-410" units-per-em="2048"/><glyph horiz-adv-x="2048"/><glyph horiz-adv-x="2048"/><glyph horiz-adv-x="256"/><glyph horiz-adv-x="512"/><glyph horiz-adv-x="512"/><glyph horiz-adv-x="512"/><glyph d="M128 0v128h128v-128h-128zM128 384v1024h128v-1024h-128z" horiz-adv-x="384" unicode="!"/><glyph d="M128 1024v384h128v-384h-128zM384 1024v384h128v-384h-128z" horiz-adv-x="640" unicode="&quot;"/><glyph d="M128 256v128h128v512h-128v128h128v384h128v-384h256v384h128v-384h128v-128h-128v-512h128v-128h-128v-256h-128v256h-256v-256h-128v256h-128zM384 384h256v512h-256v-512z" horiz-adv-x="1024" unicode="#"/><glyph d="M128 128v128h512v384h-512v640h256v128h128v-128h256v-128h-512v-384h512v-640h-256v-128h-128v128h-256z" unicode="$"/><glyph d="M128 128v256h128v-256h-128zM128 1152v256h256v-256h-256zM256 384v256h128v-256h-128zM384 640v256h128v-256h-128zM512 0v256h256v-256h-256zM512 896v256h128v-256h-128zM640 1152v256h128v-256h-128z" unicode="%"/><glyph d="M128 0v640h128v-512h384v512h-384v128h384v128h128v-896h-640zM128 768v640h640v-128h-512v-512h-128z" unicode="&amp;"/><glyph d="M128 1152v256h128v-256h-128z" horiz-adv-x="384" unicode="'"/><glyph d="M128 0v1408h128v-1408h-128zM256 0h128v-128h-128v128zM256 1408v128h128v-128h-128z" horiz-adv-x="512" unicode="("/><glyph d="M128 0h128v-128h-128v128zM128 1408v128h128v-128h-128zM256 0v1408h128v-1408h-128z" horiz-adv-x="512" unicode=")"/><glyph d="M128 1024v128h128v-128h-128zM128 1280v128h128v-128h-128zM256 1152v128h128v-128h-128zM384 1024v128h128v-128h-128zM384 1280v128h128v-128h-128z" horiz-adv-x="640" unicode="*"/><glyph d="M128 512v128h256v256h128v-256h256v-128h-256v-256h-128v256h-256z" unicode="+"/><glyph d="M128 128h128v-384h-128v384z" horiz-adv-x="384" unicode=","/><glyph d="M128 512v128h640v-128h-640z" unicode="-"/><glyph d="M128 0v128h128v-128h-128z" horiz-adv-x="384" unicode="."/><glyph d="M128 0v256h128v-256h-128zM256 256v256h128v-256h-128zM384 512v256h128v-256h-128zM512 768v256h128v-256h-128zM640 1024v256h128v-256h-128zM768 1280v256h128v-256h-128z" horiz-adv-x="1024" unicode="/"/><glyph d="M128 0v1408h640v-1408h-640zM256 128h384v384h-128v128h128v640h-384v-384h128v-128h-128v-640zM384 640v128h128v-128h-128z" unicode="0"/><glyph d="M128 1280v128h256v-1408h-128v1280h-128z" horiz-adv-x="512" unicode="1"/><glyph d="M128 0v640h128v-512h512v-128h-640zM128 1280v128h640v-768h-512v128h384v512h-512z" unicode="2"/><glyph d="M128 0v128h512v512h-256v128h256v512h-512v128h640v-1408h-640z" unicode="3"/><glyph d="M128 640v768h128v-640h384v640h128v-1408h-128v640h-512z" unicode="4"/><glyph d="M128 0v128h512v512h128v-640h-640zM128 640v768h640v-128h-512v-512h384v-128h-512z" unicode="5"/><glyph d="M128 0v1408h640v-128h-512v-512h512v-768h-640zM256 128h384v512h-384v-512z" unicode="6"/><glyph d="M128 1280v128h640v-640h-128v512h-512zM384 0v640h128v-640h-128zM512 640v128h128v-128h-128z" unicode="7"/><glyph d="M128 0v1408h640v-1408h-640zM256 128h384v512h-384v-512zM256 768h384v512h-384v-512z" unicode="8"/><glyph d="M128 0v128h512v512h-512v768h640v-1408h-640zM256 768h384v512h-384v-512z" unicode="9"/><glyph d="M128 0v128h128v-128h-128zM128 896v128h128v-128h-128z" horiz-adv-x="384" unicode=":"/><glyph d="M128 128h128v-384h-128v384zM128 896v128h128v-128h-128z" horiz-adv-x="384" unicode=";"/><glyph d="M128 512v128h128v-128h-128zM256 384v128h128v-128h-128zM256 640v128h128v-128h-128zM384 256v128h256v-128h-256zM384 768v128h256v-128h-256z" horiz-adv-x="768" unicode="&lt;"/><glyph d="M128 384v128h640v-128h-640zM128 640v128h640v-128h-640z" unicode="="/><glyph d="M128 256v128h256v-128h-256zM128 768v128h256v-128h-256zM384 384v128h128v-128h-128zM384 640v128h128v-128h-128zM512 512v128h128v-128h-128z" horiz-adv-x="768" unicode="&gt;"/><glyph d="M128 1152v256h640v-640h-128v512h-384v-128h-128zM384 0v128h128v-128h-128zM384 384v256h128v-256h-128zM512 640v128h128v-128h-128z" unicode="?"/><glyph d="M256 0v1408h1408v-1408h-1024v640h512v256h-512v128h640v-896h256v1152h-1152v-1280h-128zM768 128h384v384h-384v-384z" horiz-adv-x="1920" unicode="@"/><glyph d="M128 0v1408h640v-1408h-128v640h-384v-640h-128zM256 768h384v512h-384v-512z" unicode="A"/><glyph d="M128 0v1408h640v-640h-128v512h-384v-512h384v-128h-384v-512h384v512h128v-640h-640z" unicode="B"/><glyph d="M128 0v1408h640v-128h-512v-1152h512v-128h-640z" unicode="C"/><glyph d="M128 0v1408h512v-128h-384v-1152h384v-128h-512zM640 128v1152h128v-1152h-128z" unicode="D"/><glyph d="M128 0v1408h640v-128h-512v-512h384v-128h-384v-512h512v-128h-640z" unicode="E"/><glyph d="M128 0v1408h640v-128h-512v-512h384v-128h-384v-640h-128z" unicode="F"/><glyph d="M128 0v1408h640v-128h-512v-1152h384v512h-128v128h256v-768h-640z" unicode="G"/><glyph d="M128 0v1408h128v-640h384v640h128v-1408h-128v640h-384v-640h-128z" unicode="H"/><glyph d="M128 0v1408h128v-1408h-128z" horiz-adv-x="384" unicode="I"/><glyph d="M128 0v128h512v1152h-256v128h384v-1408h-640z" unicode="J"/><glyph d="M128 0v1408h128v-640h384v-128h-384v-640h-128zM640 0v640h128v-640h-128zM640 768v640h128v-640h-128z" unicode="K"/><glyph d="M128 0v1408h128v-1280h512v-128h-640z" unicode="L"/><glyph d="M128 0v1408h896v-1408h-128v1280h-256v-512h-128v512h-256v-1280h-128z" horiz-adv-x="1152" unicode="M"/><glyph d="M128 0v1408h640v-1408h-128v1280h-384v-1280h-128z" unicode="N"/><glyph d="M128 0v1408h640v-1408h-640zM256 128h384v1152h-384v-1152z" unicode="O"/><glyph d="M128 0v1408h640v-768h-512v-640h-128zM256 768h384v512h-384v-512z" unicode="P"/><glyph d="M128 0v1408h640v-1408h-640zM256 128h384v1152h-384v-1152zM384 -128h128v-128h-128v128z" unicode="Q"/><glyph d="M128 0v1408h640v-640h-128v512h-384v-512h384v-128h-384v-640h-128zM640 0v640h128v-640h-128z" unicode="R"/><glyph d="M128 0v128h512v512h-512v768h640v-128h-512v-512h512v-768h-640z" unicode="S"/><glyph d="M128 1280v128h640v-128h-256v-1280h-128v1280h-256z" unicode="T"/><glyph d="M128 0v1408h128v-1280h384v1280h128v-1408h-640z" unicode="U"/><glyph d="M128 384v1024h128v-1024h-128zM256 256v128h128v-128h-128zM384 128v128h128v-128h-128zM512 0v128h128v1280h128v-1408h-256z" unicode="V"/><glyph d="M128 0v1408h128v-1280h256v512h128v-512h256v1280h128v-1408h-896z" horiz-adv-x="1152" unicode="W"/><glyph d="M128 0v512h128v-512h-128zM128 896v512h128v-512h-128zM256 512v128h128v-128h-128zM256 768v128h128v-128h-128zM384 640v128h128v-128h-128zM512 512v128h128v-128h-128zM512 768v128h128v-128h-128zM640 0v512h128v-512h-128zM640 896v512h128v-512h-128z" unicode="X"/><glyph d="M128 768v640h128v-640h-128zM256 640v128h384v-128h-128v-640h-128v640h-128zM640 768v640h128v-640h-128z" unicode="Y"/><glyph d="M128 0v512h128v-384h512v-128h-640zM128 1280v128h640v-512h-128v384h-512zM256 512v128h128v-128h-128zM384 640v128h128v-128h-128zM512 768v128h128v-128h-128z" unicode="Z"/><glyph d="M128 -128v1664h256v-128h-128v-1408h128v-128h-256z" horiz-adv-x="512" unicode="["/><glyph d="M128 1280v256h128v-256h-128zM256 1024v256h128v-256h-128zM384 768v256h128v-256h-128zM512 512v256h128v-256h-128zM640 256v256h128v-256h-128zM768 0v256h128v-256h-128z" horiz-adv-x="1024" unicode="\"/><glyph d="M128 0h128v1408h-128v128h256v-1664h-256v128z" horiz-adv-x="512" unicode="]"/><glyph d="M128 896v256h128v-256h-128zM256 1152v128h128v-128h-128zM384 1280v128h128v-128h-128zM512 1152v128h128v-128h-128zM640 896v256h128v-256h-128z" unicode="^"/><glyph d="M128 -128h640v-128h-640v128z" unicode="_"/><glyph d="M128 1664v128h128v-128h-128zM256 1536v128h128v-128h-128z" horiz-adv-x="512" unicode="`"/><glyph d="M128 0v640h512v256h-512v128h640v-1024h-640zM256 128h384v384h-384v-384z" unicode="a"/><glyph d="M128 0v1408h128v-384h512v-1024h-640zM256 128h384v768h-384v-768z" unicode="b"/><glyph d="M128 0v1024h640v-128h-512v-768h512v-128h-640z" unicode="c"/><glyph d="M128 0v1024h512v384h128v-1408h-640zM256 128h384v768h-384v-768z" unicode="d"/><glyph d="M128 0v1024h640v-640h-512v-256h512v-128h-640zM256 512h384v384h-384v-384z" unicode="e"/><glyph d="M128 0v1408h512v-128h-384v-256h384v-128h-384v-896h-128z" horiz-adv-x="768" unicode="f"/><glyph d="M128 -128h512v256h-512v896h640v-1280h-640v128zM256 256h384v640h-384v-640z" unicode="g"/><glyph d="M128 0v1408h128v-384h512v-1024h-128v896h-384v-896h-128z" unicode="h"/><glyph d="M128 0v1024h128v-1024h-128zM128 1280v128h128v-128h-128z" horiz-adv-x="384" unicode="i"/><glyph d="M128 -256v1280h128v-1280h-128zM128 1280v128h128v-128h-128z" horiz-adv-x="384" unicode="j"/><glyph d="M128 0v1408h128v-768h384v-128h-384v-512h-128zM640 0v512h128v-512h-128zM640 640v384h128v-384h-128z" unicode="k"/><glyph d="M128 0v1408h128v-1408h-128z" horiz-adv-x="384" unicode="l"/><glyph d="M128 0v1024h896v-1024h-128v896h-256v-896h-128v896h-256v-896h-128z" horiz-adv-x="1152" unicode="m"/><glyph d="M128 0v1024h640v-1024h-128v896h-384v-896h-128z" unicode="n"/><glyph d="M128 0v1024h640v-1024h-640zM256 128h384v768h-384v-768z" unicode="o"/><glyph d="M128 -256v1280h640v-1024h-512v-256h-128zM256 128h384v768h-384v-768z" unicode="p"/><glyph d="M128 0v1024h640v-1280h-128v256h-512zM256 128h384v768h-384v-768z" unicode="q"/><glyph d="M128 0v1024h512v-128h-384v-896h-128z" horiz-adv-x="768" unicode="r"/><glyph d="M128 0v128h512v384h-512v512h640v-128h-512v-256h512v-640h-640z" unicode="s"/><glyph d="M128 0v1408h128v-384h256v-128h-256v-768h256v-128h-384z" horiz-adv-x="640" unicode="t"/><glyph d="M128 0v1024h128v-896h384v896h128v-1024h-640z" unicode="u"/><glyph d="M128 256v768h128v-768h-128zM256 128v128h128v-128h-128zM384 0v128h256v896h128v-1024h-384z" unicode="v"/><glyph d="M128 0v1024h128v-896h256v896h128v-896h256v896h128v-1024h-896z" horiz-adv-x="1152" unicode="w"/><glyph d="M128 0v384h128v-384h-128zM128 768v256h128v-256h-128zM256 384v128h128v-128h-128zM256 640v128h128v-128h-128zM384 512v128h128v-128h-128zM512 384v128h128v-128h-128zM512 640v128h128v-128h-128zM640 0v384h128v-384h-128zM640 768v256h128v-256h-128z" unicode="x"/><glyph d="M128 -128h512v256h-512v896h128v-768h384v768h128v-1280h-640v128z" unicode="y"/><glyph d="M128 0v384h128v-256h512v-128h-640zM128 896v128h640v-256h-128v128h-512zM256 384v128h128v-128h-128zM384 512v128h128v-128h-128zM512 640v128h128v-128h-128z" unicode="z"/><glyph d="M128 640v128h128v768h256v-128h-128v-1408h128v-128h-256v768h-128z" horiz-adv-x="640" unicode="{"/><glyph d="M128 -256v1920h128v-1920h-128z" horiz-adv-x="384" unicode="|"/><glyph d="M128 0h128v1408h-128v128h256v-768h128v-128h-128v-768h-256v128z" horiz-adv-x="640" unicode="}"/><glyph d="M128 384v256h512v128h128v-256h-512v-128h-128z" unicode="~"/><glyph d="M128 0v1024h128v-1024h-128zM128 1280v128h128v-128h-128z" horiz-adv-x="384" unicode="¡"/><glyph d="M128 256v896h256v256h128v-256h256v-128h-512v-640h512v-128h-256v-256h-128v256h-256z" unicode="¢"/><glyph d="M128 128v1280h512v-256h-128v128h-256v-512h256v-128h-256v-384h384v128h128v-256h-640z" unicode="£"/><glyph d="M128 384v128h128v-128h-128zM128 896v128h128v-128h-128zM256 512v384h384v-384h-384zM384 640h128v128h-128v-128zM640 384v128h128v-128h-128zM640 896v128h128v-128h-128z" unicode="¤"/><glyph d="M128 256v128h256v128h-256v128h256v128h-128v128h384v-128h-128v-128h256v-128h-256v-128h256v-128h-256v-128h-128v128h-256zM128 896v512h128v-512h-128zM640 896v512h128v-512h-128z" unicode="¥"/><glyph d="M128 -256v768h128v-768h-128zM128 896v768h128v-768h-128z" horiz-adv-x="384" unicode="¦"/><glyph d="M128 1536v128h128v-128h-128zM384 1536v128h128v-128h-128z" horiz-adv-x="640" unicode="¨"/><glyph d="M128 384v1024h896v-1024h-896zM256 512h640v768h-640v-768zM384 640v512h384v-128h-256v-256h256v-128h-384z" horiz-adv-x="1152" unicode="©"/><glyph d="M128 640v128h640v-384h-128v256h-512z" unicode="¬"/><glyph d="M128 512v128h640v-128h-640z" unicode="­"/><glyph d="M128 384v1024h896v-1024h-896zM256 512h640v768h-640v-768zM384 640v512h384v-256h-128v128h-128v-128h128v-128h-128v-128h-128zM640 640v128h128v-128h-128z" horiz-adv-x="1152" unicode="®"/><glyph d="M128 1536v128h640v-128h-640z" unicode="¯"/><glyph d="M128 1408v384h384v-384h-384zM256 1536h128v128h-128v-128z" horiz-adv-x="640" unicode="°"/><glyph d="M128 0v128h640v-128h-640zM128 512v128h256v256h128v-256h256v-128h-256v-256h-128v256h-256z" unicode="±"/><glyph d="M128 1408v128h128v-128h-128zM256 1536v128h128v-128h-128z" horiz-adv-x="512" unicode="´"/><glyph d="M128 -256v1280h128v-896h384v896h128v-1024h-512v-256h-128z" unicode="µ"/><glyph d="M128 768v512h128v128h768v-1408h-128v1152h-128v-1152h-128v640h-384v128h-128z" horiz-adv-x="1152" unicode="¶"/><glyph d="M128 640v128h128v-128h-128z" horiz-adv-x="384" unicode="·"/><glyph d="M256 -128h128v128h128v-256h-256v128z" horiz-adv-x="640" unicode="¸"/><glyph d="M128 0v640h128v-512h384v128h128v-256h-640zM256 640v128h128v-128h-128zM384 768v256h128v-256h-128zM384 1280v128h128v-128h-128z" unicode="¿"/><glyph d="M128 0v1408h640v-1408h-128v640h-384v-640h-128zM256 768h384v512h-384v-512zM256 1664v128h128v-128h-128zM384 1536v128h128v-128h-128z" unicode="À"/><glyph d="M128 0v1408h640v-1408h-128v640h-384v-640h-128zM256 768h384v512h-384v-512zM384 1536v128h128v-128h-128zM512 1664v128h128v-128h-128z" unicode="Á"/><glyph d="M128 0v1408h640v-1408h-128v640h-384v-640h-128zM256 768h384v512h-384v-512zM256 1536v128h128v-128h-128zM384 1664v128h128v-128h-128zM512 1536v128h128v-128h-128z" unicode="Â"/><glyph d="M128 0v1408h128v256h256v128h128v-256h-256v-128h384v-1408h-128v640h-384v-640h-128zM256 768h384v512h-384v-512z" unicode="Ã"/><glyph d="M128 0v1408h640v-1408h-128v640h-384v-640h-128zM256 768h384v512h-384v-512zM256 1536v128h128v-128h-128zM512 1536v128h128v-128h-128z" unicode="Ä"/><glyph d="M128 0v1408h128v256h384v-256h128v-1408h-128v640h-384v-640h-128zM256 768h384v512h-384v-512zM384 1408h128v128h-128v-128z" unicode="Å"/><glyph d="M128 0v1408h1152v-128h-512v-512h384v-128h-384v-512h512v-128h-640v640h-384v-640h-128zM256 768h384v512h-384v-512z" horiz-adv-x="1408" unicode="Æ"/><glyph d="M128 0v1408h640v-128h-512v-1152h512v-128h-256v-256h-256v128h128v128h-256z" unicode="Ç"/><glyph d="M128 0v1408h640v-128h-512v-512h384v-128h-384v-512h512v-128h-640zM256 1664v128h128v-128h-128zM384 1536v128h128v-128h-128z" unicode="È"/><glyph d="M128 0v1408h640v-128h-512v-512h384v-128h-384v-512h512v-128h-640zM384 1536v128h128v-128h-128zM512 1664v128h128v-128h-128z" unicode="É"/><glyph d="M128 0v1408h640v-128h-512v-512h384v-128h-384v-512h512v-128h-640zM256 1536v128h128v-128h-128zM384 1664v128h128v-128h-128zM512 1536v128h128v-128h-128z" unicode="Ê"/><glyph d="M128 0v1408h640v-128h-512v-512h384v-128h-384v-512h512v-128h-640zM256 1536v128h128v-128h-128zM512 1536v128h128v-128h-128z" unicode="Ë"/><glyph d="M0 1664v128h128v-128h-128zM128 0v1408h128v-1408h-128zM128 1536v128h128v-128h-128z" horiz-adv-x="384" unicode="Ì"/><glyph d="M128 0v1408h128v-1408h-128zM128 1536v128h128v-128h-128zM256 1664v128h128v-128h-128z" horiz-adv-x="384" unicode="Í"/><glyph d="M0 1536v128h128v-128h-128zM128 0v1408h128v-1408h-128zM128 1664v128h128v-128h-128zM256 1536v128h128v-128h-128z" horiz-adv-x="384" unicode="Î"/><glyph d="M0 1536v128h128v-128h-128zM128 0v1408h128v-1408h-128zM256 1536v128h128v-128h-128z" horiz-adv-x="384" unicode="Ï"/><glyph d="M128 0v1408h512v-128h-384v-512h256v-128h-256v-512h384v-128h-512zM640 128v1152h128v-1152h-128z" unicode="Ð"/><glyph d="M128 0v1408h128v256h256v128h128v-256h-256v-128h384v-1408h-128v1280h-384v-1280h-128z" unicode="Ñ"/><glyph d="M128 0v1408h640v-1408h-640zM256 128h384v1152h-384v-1152zM256 1664v128h128v-128h-128zM384 1536v128h128v-128h-128z" unicode="Ò"/><glyph d="M128 0v1408h640v-1408h-640zM256 128h384v1152h-384v-1152zM384 1536v128h128v-128h-128zM512 1664v128h128v-128h-128z" unicode="Ó"/><glyph d="M128 0v1408h640v-1408h-640zM256 128h384v1152h-384v-1152zM256 1536v128h128v-128h-128zM384 1664v128h128v-128h-128zM512 1536v128h128v-128h-128z" unicode="Ô"/><glyph d="M128 0v1408h128v256h256v128h128v-256h-256v-128h384v-1408h-640zM256 128h384v1152h-384v-1152z" unicode="Õ"/><glyph d="M128 0v1408h640v-1408h-640zM256 128h384v1152h-384v-1152zM256 1536v128h128v-128h-128zM512 1536v128h128v-128h-128z" unicode="Ö"/><glyph d="M128 256v128h128v-128h-128zM128 768v128h128v-128h-128zM256 384v128h128v-128h-128zM256 640v128h128v-128h-128zM384 512v128h128v-128h-128zM512 384v128h128v-128h-128zM512 640v128h128v-128h-128zM640 256v128h128v-128h-128zM640 768v128h128v-128h-128z" unicode="×"/><glyph d="M128 -128v1536h512v128h128v-1536h-512v-128h-128zM256 512h128v-384h256v768h-128v384h-256v-768zM384 512v384h128v-384h-128z" unicode="Ø"/><glyph d="M128 0v1408h128v-1280h384v1280h128v-1408h-640zM256 1664v128h128v-128h-128zM384 1536v128h128v-128h-128z" unicode="Ù"/><glyph d="M128 0v1408h128v-1280h384v1280h128v-1408h-640zM384 1536v128h128v-128h-128zM512 1664v128h128v-128h-128z" unicode="Ú"/><glyph d="M128 0v1408h128v-1280h384v1280h128v-1408h-640zM256 1536v128h128v-128h-128zM384 1664v128h128v-128h-128zM512 1536v128h128v-128h-128z" unicode="Û"/><glyph d="M128 0v1408h128v-1280h384v1280h128v-1408h-640zM256 1536v128h128v-128h-128zM512 1536v128h128v-128h-128z" unicode="Ü"/><glyph d="M128 768v640h128v-640h-128zM256 640v128h384v-128h-128v-640h-128v640h-128zM384 1536v128h128v-128h-128zM512 1664v128h128v-128h-128zM640 768v640h128v-640h-128z" unicode="Ý"/><glyph d="M128 0v1408h128v-256h384v-128h-384v-640h384v-128h-384v-256h-128zM640 384v640h128v-640h-128z" unicode="Þ"/><glyph d="M128 0v1408h512v-640h128v-768h-384v128h256v512h-384v-640h-128zM256 768h256v512h-256v-512z" unicode="ß"/><glyph d="M128 0v640h512v256h-512v128h640v-1024h-640zM256 128h384v384h-384v-384zM256 1280v128h128v-128h-128zM384 1152v128h128v-128h-128z" unicode="à"/><glyph d="M128 0v640h512v256h-512v128h640v-1024h-640zM256 128h384v384h-384v-384zM384 1152v128h128v-128h-128zM512 1280v128h128v-128h-128z" unicode="á"/><glyph d="M128 0v640h512v256h-512v128h640v-1024h-640zM256 128h384v384h-384v-384zM256 1152v128h128v-128h-128zM384 1280v128h128v-128h-128zM512 1152v128h128v-128h-128z" unicode="â"/><glyph d="M128 0v640h512v256h-512v128h128v256h256v128h128v-256h-256v-128h384v-1024h-640zM256 128h384v384h-384v-384z" unicode="ã"/><glyph d="M128 0v640h512v256h-512v128h640v-1024h-640zM256 128h384v384h-384v-384zM256 1152v128h128v-128h-128zM512 1152v128h128v-128h-128z" unicode="ä"/><glyph d="M128 0v640h512v256h-512v128h128v256h384v-256h128v-1024h-640zM256 128h384v384h-384v-384zM384 1024h128v128h-128v-128z" unicode="å"/><glyph d="M128 0v640h512v256h-512v128h1152v-640h-512v-256h512v-128h-1152zM256 128h384v384h-384v-384zM768 512h384v384h-384v-384z" horiz-adv-x="1408" unicode="æ"/><glyph d="M128 0v1024h640v-128h-512v-768h512v-128h-256v-256h-256v128h128v128h-256z" unicode="ç"/><glyph d="M128 0v1024h640v-640h-512v-256h512v-128h-640zM256 512h384v384h-384v-384zM256 1280v128h128v-128h-128zM384 1152v128h128v-128h-128z" unicode="è"/><glyph d="M128 0v1024h640v-640h-512v-256h512v-128h-640zM256 512h384v384h-384v-384zM384 1152v128h128v-128h-128zM512 1280v128h128v-128h-128z" unicode="é"/><glyph d="M128 0v1024h640v-640h-512v-256h512v-128h-640zM256 512h384v384h-384v-384zM256 1152v128h128v-128h-128zM384 1280v128h128v-128h-128zM512 1152v128h128v-128h-128z" unicode="ê"/><glyph d="M128 0v1024h640v-640h-512v-256h512v-128h-640zM256 512h384v384h-384v-384zM256 1152v128h128v-128h-128zM512 1152v128h128v-128h-128z" unicode="ë"/><glyph d="M0 1280v128h128v-128h-128zM128 0v1024h128v-1024h-128zM128 1152v128h128v-128h-128z" horiz-adv-x="384" unicode="ì"/><glyph d="M128 0v1024h128v-1024h-128zM128 1152v128h128v-128h-128zM256 1280v128h128v-128h-128z" horiz-adv-x="384" unicode="í"/><glyph d="M0 1152v128h128v-128h-128zM128 0v1024h128v-1024h-128zM128 1280v128h128v-128h-128zM256 1152v128h128v-128h-128z" horiz-adv-x="384" unicode="î"/><glyph d="M0 1152v128h128v-128h-128zM128 0v1024h128v-1024h-128zM256 1152v128h128v-128h-128z" horiz-adv-x="384" unicode="ï"/><glyph d="M128 0v1024h256v128h-128v128h128v128h128v-128h256v-1280h-640zM256 128h384v768h-384v-768zM512 1024h128v128h-128v-128z" unicode="ð"/><glyph d="M128 0v1024h128v256h256v128h128v-256h-256v-128h384v-1024h-128v896h-384v-896h-128z" unicode="ñ"/><glyph d="M128 0v1024h640v-1024h-640zM256 128h384v768h-384v-768zM256 1280v128h128v-128h-128zM384 1152v128h128v-128h-128z" unicode="ò"/><glyph d="M128 0v1024h640v-1024h-640zM256 128h384v768h-384v-768zM384 1152v128h128v-128h-128zM512 1280v128h128v-128h-128z" unicode="ó"/><glyph d="M128 0v1024h640v-1024h-640zM256 128h384v768h-384v-768zM256 1152v128h128v-128h-128zM384 1280v128h128v-128h-128zM512 1152v128h128v-128h-128z" unicode="ô"/><glyph d="M128 0v1024h128v256h256v128h128v-256h-256v-128h384v-1024h-640zM256 128h384v768h-384v-768z" unicode="õ"/><glyph d="M128 0v1024h640v-1024h-640zM256 128h384v768h-384v-768zM256 1152v128h128v-128h-128zM512 1152v128h128v-128h-128z" unicode="ö"/><glyph d="M128 512v128h640v-128h-640zM384 256v128h128v-128h-128zM384 768v128h128v-128h-128z" unicode="÷"/><glyph d="M128 -128v1152h512v128h128v-1152h-512v-128h-128zM256 384h128v-256h256v512h-128v256h-256v-512zM384 384v256h128v-256h-128z" unicode="ø"/><glyph d="M128 0v1024h128v-896h384v896h128v-1024h-640zM256 1280v128h128v-128h-128zM384 1152v128h128v-128h-128z" unicode="ù"/><glyph d="M128 0v1024h128v-896h384v896h128v-1024h-640zM384 1152v128h128v-128h-128zM512 1280v128h128v-128h-128z" unicode="ú"/><glyph d="M128 0v1024h128v-896h384v896h128v-1024h-640zM256 1152v128h128v-128h-128zM384 1280v128h128v-128h-128zM512 1152v128h128v-128h-128z" unicode="û"/><glyph d="M128 0v1024h128v-896h384v896h128v-1024h-640zM256 1152v128h128v-128h-128zM512 1152v128h128v-128h-128z" unicode="ü"/><glyph d="M128 -128h512v256h-512v896h128v-768h384v768h128v-1280h-640v128zM384 1152v128h128v-128h-128zM512 1280v128h128v-128h-128z" unicode="ý"/><glyph d="M128 0v1024h128v-128h256v-128h-256v-512h256v-128h-256v-128h-128zM512 256v512h128v-512h-128z" horiz-adv-x="768" unicode="þ"/><glyph d="M128 -128h512v256h-512v896h128v-768h384v768h128v-1280h-640v128zM256 1152v128h128v-128h-128zM512 1152v128h128v-128h-128z" unicode="ÿ"/><glyph d="M128 768v640h128v-640h-128zM256 640v128h384v-128h-128v-640h-128v640h-128zM256 1536v128h128v-128h-128zM512 1536v128h128v-128h-128zM640 768v640h128v-640h-128z" unicode="Ÿ"/><glyph/><glyph horiz-adv-x="1792"/><glyph/><glyph horiz-adv-x="1792"/><glyph horiz-adv-x="597"/><glyph horiz-adv-x="448"/><glyph horiz-adv-x="298"/><glyph horiz-adv-x="298"/><glyph horiz-adv-x="224"/><glyph horiz-adv-x="358"/><glyph horiz-adv-x="99"/><glyph d="M128 512v128h640v-128h-640z" unicode="‐"/><glyph d="M128 512v128h640v-128h-640z" unicode="‑"/><glyph d="M128 512v128h640v-128h-640z" unicode="‒"/><glyph d="M128 512v128h640v-128h-640z" unicode="–"/><glyph d="M128 512v128h896v-128h-896z" horiz-adv-x="1152" unicode="—"/><glyph d="M128 1024v384h128v-384h-128z" horiz-adv-x="384" unicode="‘"/><glyph d="M128 1024v384h128v-384h-128z" horiz-adv-x="384" unicode="’"/><glyph d="M128 1024v384h128v-384h-128zM384 1024v384h128v-384h-128z" horiz-adv-x="640" unicode="“"/><glyph d="M128 1024v384h128v-384h-128zM384 1024v384h128v-384h-128z" horiz-adv-x="640" unicode="”"/><glyph d="M128 512v256h256v-256h-256z" horiz-adv-x="512" unicode="•"/><glyph d="M128 0v128h128v-128h-128zM384 0v128h128v-128h-128zM640 0v128h128v-128h-128z" unicode="…"/><glyph horiz-adv-x="358"/><glyph horiz-adv-x="448"/><glyph d="M128 128v1280h640v-128h-512v-384h256v-128h-256v-128h256v-128h-256v-256h512v-128h-640z" unicode="€"/><glyph d="M128 1280v128h768v-512h-128v256h-128v-256h-128v384h-128v-384h-128v384h-128z" horiz-adv-x="1024" unicode="™"/><glyph d="M0 0v1020h1020v-1020h-1020z" horiz-adv-x="1020" unicode="◼"/></font>
</defs>
</svg>
